<?xml version="1.0" encoding="UTF-8"?>
<svg version="1.1" xmlns="http://www.w3.org/2000/svg" width="225" height="225">
<path d="M0 0 C74.25 0 148.5 0 225 0 C225 74.25 225 148.5 225 225 C150.75 225 76.5 225 0 225 C0 150.75 0 76.5 0 0 Z " fill="#FEFEFE" transform="translate(0,0)"/>
<path d="M0 0 C0.69869202 -0.00832352 1.39738403 -0.01664703 2.11724854 -0.02522278 C4.40960407 -0.04916112 6.70167363 -0.05807806 8.99414062 -0.06469727 C10.60730057 -0.07368102 12.22045974 -0.08280314 13.83361816 -0.09205627 C17.21266695 -0.10850874 20.59161717 -0.11623862 23.97070312 -0.11914062 C28.25950897 -0.12449809 32.54736115 -0.16208379 36.83589935 -0.20788479 C40.1700765 -0.23793046 43.50403252 -0.24487019 46.83833313 -0.24586678 C48.41689893 -0.25002051 49.99546847 -0.26225484 51.57389832 -0.28338432 C66.14391762 -0.46278814 79.75182864 1.69580463 90.65039062 12.30639648 C91.28460938 12.91354492 91.91882813 13.52069336 92.57226562 14.14624023 C101.73989305 23.72523556 104.13863683 34.84969922 103.92382812 47.66577148 C103.62166745 55.07917897 101.2965947 61.1793276 97.86132812 67.70483398 C92.50228589 77.94754184 91.56362787 86.79173904 91.65039062 98.30639648 C86.73673495 99.25604316 83.47897725 99.33334744 78.77539062 97.61889648 C77.82921875 97.2850293 76.88304687 96.95116211 75.90820312 96.60717773 C72.65039062 95.30639648 72.65039062 95.30639648 70.73277283 94.32579041 C64.76818833 91.34950296 59.75653592 90.70588765 53.14648438 90.69702148 C52.18259293 90.68048523 51.21870148 90.66394897 50.2256012 90.64691162 C47.17963083 90.59874666 44.13415852 90.57713088 41.08789062 90.55639648 C39.00908995 90.52821045 36.93031216 90.49827938 34.8515625 90.46655273 C29.78454627 90.39299624 24.71780145 90.3432296 19.65039062 90.30639648 C19.65809479 90.99482635 19.66579895 91.68325623 19.67373657 92.39254761 C19.6797287 93.29465973 19.68572083 94.19677185 19.69189453 95.1262207 C19.69959869 96.02090057 19.70730286 96.91558044 19.71524048 97.83737183 C19.51453047 105.47899206 14.8604777 112.93457722 9.65039062 118.30639648 C0.35307207 125.91329348 -8.16965381 127.74082756 -19.92382812 127.67749023 C-22.39062635 127.69487844 -24.85742319 127.71246276 -27.32421875 127.73022461 C-31.17702862 127.74026626 -35.02974598 127.74389976 -38.88256836 127.7421875 C-42.62576136 127.74578649 -46.36826016 127.77324007 -50.11132812 127.80249023 C-51.24406662 127.79430771 -52.37680511 127.78612518 -53.54386902 127.7776947 C-60.67229088 127.84306418 -66.63168027 129.000158 -73.36091614 131.36976624 C-77.90823081 132.79485477 -82.58465445 133.35186361 -87.34960938 133.30639648 C-87.67960937 132.97639648 -88.00960937 132.64639648 -88.34960938 132.30639648 C-88.10631655 130.49907832 -87.86292461 128.69177346 -87.61914062 126.88452148 C-86.50668818 116.97222964 -86.50668818 116.97222964 -88.84960938 107.49389648 C-92.21640184 99.8904226 -91.32168215 89.15525054 -88.84960938 81.43139648 C-84.40401693 71.13063349 -77.64980625 64.6407961 -67.34960938 60.30639648 C-64.22008213 59.34968866 -61.41277822 59.18975015 -58.14648438 59.20874023 C-57.16679688 59.21196289 -56.18710937 59.21518555 -55.17773438 59.21850586 C-54.16195312 59.22688477 -53.14617188 59.23526367 -52.09960938 59.24389648 C-50.55273438 59.25066406 -50.55273438 59.25066406 -48.97460938 59.25756836 C-46.43288364 59.26933561 -43.89127618 59.28577637 -41.34960938 59.30639648 C-41.50969482 58.72768799 -41.66978027 58.14897949 -41.8347168 57.55273438 C-44.17366795 47.34851932 -43.10534634 35.56679114 -38.34960938 26.30639648 C-37.91390625 25.4465918 -37.47820312 24.58678711 -37.02929688 23.70092773 C-31.248109 13.26003924 -22.62043006 5.03752488 -11.14709473 1.24888611 C-7.28447267 0.29023035 -3.97281439 0.03371308 0 0 Z " fill="#8357F5" transform="translate(105.349609375,45.693603515625)"/>
<path d="M0 0 C0.495 1.485 0.495 1.485 1 3 C2.43496826 2.94501343 2.43496826 2.94501343 3.89892578 2.88891602 C7.51790775 2.76025448 11.13669812 2.68116477 14.75732422 2.61547852 C16.31105758 2.58071257 17.86456981 2.53327951 19.41748047 2.47192383 C33.91932453 1.9141606 43.98580513 5.12578118 55 15 C57.79921583 19.19882375 56.86558093 21.12127113 56 26 C55.505 26.495 55.505 26.495 55 27 C54.63128912 28.65919896 54.30404678 30.32774271 54 32 C53.11111111 36.88888889 53.11111111 36.88888889 52 38 C51.9175 39.0725 51.835 40.145 51.75 41.25 C50.8552153 45.72392349 49.49801032 47.16827736 46 50 C44.515 50.495 44.515 50.495 43 51 C42.67 51.99 42.34 52.98 42 54 C39.69631264 55.06652192 37.35981813 56.06421005 35 57 C34.01 57.66 33.02 58.32 32 59 C29.08203125 59.4140625 29.08203125 59.4140625 25.8125 59.625 C24.72582031 59.69976562 23.63914062 59.77453125 22.51953125 59.8515625 C21.68808594 59.90054688 20.85664062 59.94953125 20 60 C20 60.66 20 61.32 20 62 C13.09490109 62.14298936 6.18978923 62.2853402 -0.71533203 62.42724609 C-3.06461892 62.47560136 -5.4139028 62.52410306 -7.76318359 62.57275391 C-11.13898959 62.64263751 -14.51480605 62.71199534 -17.890625 62.78125 C-18.94179504 62.80312378 -19.99296509 62.82499756 -21.07598877 62.84753418 C-22.05670349 62.86755493 -23.03741821 62.88757568 -24.04785156 62.90820312 C-24.90944885 62.92596802 -25.77104614 62.94373291 -26.65875244 62.96203613 C-28.77226167 62.99630717 -30.88621293 63 -33 63 C-34.41904676 63.14501208 -35.83607595 63.31147679 -37.25 63.5 C-39.10625 63.7475 -39.10625 63.7475 -41 64 C-41 61.36 -41 58.72 -41 56 C-41.66 55.67 -42.32 55.34 -43 55 C-43 53.35 -43 51.7 -43 50 C-43.66 50 -44.32 50 -45 50 C-45.125 44.25 -45.125 44.25 -44 42 C-44.66 42 -45.32 42 -46 42 C-47.23936872 32.60767561 -47.72364809 24.09324234 -42.625 15.75 C-37.59644173 9.36759912 -30.00151644 4.60914275 -22 3 C-20.26714352 2.92047194 -18.53152614 2.89225857 -16.796875 2.90234375 C-15.8171875 2.90556641 -14.8375 2.90878906 -13.828125 2.91210938 C-12.81234375 2.92048828 -11.7965625 2.92886719 -10.75 2.9375 C-9.203125 2.94426758 -9.203125 2.94426758 -7.625 2.95117188 C-5.08327427 2.96293912 -2.54166681 2.97937989 0 3 C0 2.01 0 1.02 0 0 Z " fill="#F44F91" transform="translate(64,102)"/>
<path d="M0 0 C0.99 0.495 0.99 0.495 2 1 C2 2.65 2 4.3 2 6 C3.05799805 5.97905273 4.11599609 5.95810547 5.20605469 5.93652344 C9.18687028 5.86331435 13.16762831 5.81791096 17.14892578 5.78027344 C18.86159317 5.76034001 20.57419414 5.73318295 22.28662109 5.69824219 C34.33643052 5.45879536 44.08448512 6.37455494 55 12 C55 12.66 55 13.32 55 14 C56.2375 13.938125 57.475 13.87625 58.75 13.8125 C62.64840972 13.79889299 63.90610439 14.65613969 67 17 C69.98584438 17.56277695 72.969471 17.81221081 76 18 C76 19.32 76 20.64 76 22 C68.58683968 24.021771 61.78469909 21.44673627 55.0823822 18.01939392 C49.1177977 15.04310647 44.1061453 14.39949116 37.49609375 14.390625 C36.05025658 14.36582062 36.05025658 14.36582062 34.57521057 14.34051514 C31.5292402 14.29235017 28.48376789 14.27073439 25.4375 14.25 C23.35869932 14.22181397 21.27992153 14.1918829 19.20117188 14.16015625 C14.13415565 14.08659975 9.06741083 14.03683311 4 14 C4.00770416 14.68842987 4.01540833 15.37685974 4.02334595 16.08615112 C4.02933807 16.98826324 4.0353302 17.89037537 4.04150391 18.81982422 C4.04920807 19.71450409 4.05691223 20.60918396 4.06484985 21.53097534 C3.86413985 29.17259557 -0.78991293 36.62818073 -6 42 C-15.29731856 49.606897 -23.82004443 51.43443107 -35.57421875 51.37109375 C-38.04101697 51.38848196 -40.50781382 51.40606628 -42.97460938 51.42382812 C-46.82741925 51.43386978 -50.6801366 51.43750327 -54.53295898 51.43579102 C-58.27615199 51.43939001 -62.01865079 51.46684358 -65.76171875 51.49609375 C-66.89445724 51.48791122 -68.02719574 51.4797287 -69.19425964 51.47129822 C-76.32268151 51.5366677 -82.28207089 52.69376151 -89.01130676 55.06336975 C-93.55862144 56.48845829 -98.23504507 57.04546713 -103 57 C-103.33 56.67 -103.66 56.34 -104 56 C-103.75670717 54.19268184 -103.51331524 52.38537698 -103.26953125 50.578125 C-102.1570788 40.66583316 -102.1570788 40.66583316 -104.5 31.1875 C-107.79759729 23.80716321 -106.99464133 12.99580325 -104.5 5.5 C-104.005 4.345 -103.51 3.19 -103 2 C-101.90982066 5.27053803 -102.25596398 7.37286691 -102.7421875 10.7265625 C-103.16789778 14.48055314 -103.07858911 18.22772257 -103 22 C-102.34 22 -101.68 22 -101 22 C-101.33 24.64 -101.66 27.28 -102 30 C-101.34 30 -100.68 30 -100 30 C-100 31.65 -100 33.3 -100 35 C-99.01 35.33 -98.02 35.66 -97 36 C-97.33 38.64 -97.66 41.28 -98 44 C-97.29875 43.649375 -96.5975 43.29875 -95.875 42.9375 C-92.49465062 41.83521216 -90.43478481 42.29743038 -87 43 C-86.67 42.67 -86.34 42.34 -86 42 C-84.4651703 41.90680551 -82.92607918 41.882542 -81.38842773 41.88647461 C-80.40748642 41.88655014 -79.4265451 41.88662567 -78.4158783 41.88670349 C-77.3492244 41.89186478 -76.2825705 41.89702606 -75.18359375 41.90234375 C-73.55430687 41.90446617 -73.55430687 41.90446617 -71.8921051 41.90663147 C-68.40720925 41.91224952 -64.92237658 41.92480508 -61.4375 41.9375 C-59.08138113 41.94251267 -56.72526126 41.94707598 -54.36914062 41.95117188 C-48.57940536 41.96222481 -42.78970719 41.97898049 -37 42 C-37.33 41.01 -37.66 40.02 -38 39 C-36.66195312 38.94392578 -36.66195312 38.94392578 -35.296875 38.88671875 C-33.54117188 38.78810547 -33.54117188 38.78810547 -31.75 38.6875 C-30.58984375 38.62949219 -29.4296875 38.57148438 -28.234375 38.51171875 C-24.82764921 37.97273194 -23.56183704 37.19179391 -21 35 C-20.05125 34.7525 -19.1025 34.505 -18.125 34.25 C-14.31441079 32.72576432 -12.76271256 30.74694823 -10.296875 27.55859375 C-9 26 -9 26 -7 25 C-6.64820803 22.6693782 -6.31669821 20.33564933 -6 18 C-5.33333333 16.66666667 -4.66666667 15.33333333 -4 14 C-3.855625 12.906875 -3.71125 11.81375 -3.5625 10.6875 C-2.94036834 6.60908135 -1.74277663 3.71287194 0 0 Z " fill="#DF4583" transform="translate(121,122)"/>
<path d="M0 0 C0.33 0 0.66 0 1 0 C1.77622313 10.13402422 -0.86237261 18.23378323 -7.23828125 26.18359375 C-13.86348367 33.01445656 -22.34963976 37.07485927 -31.8425293 37.36889648 C-34.08638021 37.38321628 -36.33035472 37.3831848 -38.57421875 37.37109375 C-41.04101697 37.38848196 -43.50781382 37.40606628 -45.97460938 37.42382812 C-49.82741925 37.43386978 -53.6801366 37.43750327 -57.53295898 37.43579102 C-61.27615199 37.43939001 -65.01865079 37.46684358 -68.76171875 37.49609375 C-69.89445724 37.48791122 -71.02719574 37.4797287 -72.19425964 37.47129822 C-79.32268151 37.5366677 -85.28207089 38.69376151 -92.01130676 41.06336975 C-96.55862144 42.48845829 -101.23504507 43.04546713 -106 43 C-106.33 42.67 -106.66 42.34 -107 42 C-106.32075472 33.71320755 -106.32075472 33.71320755 -104 30 C-104 31.65 -104 33.3 -104 35 C-99.24783002 33.71668852 -99.24783002 33.71668852 -94.66438293 31.94961548 C-91.50051799 30.8219791 -88.91456751 30.72088246 -85.55737305 30.68115234 C-83.63594734 30.65134781 -83.63594734 30.65134781 -81.67570496 30.62094116 C-80.28771131 30.60906656 -78.89971583 30.5974036 -77.51171875 30.5859375 C-76.08395785 30.56721595 -74.6562079 30.5476418 -73.22846985 30.5272522 C-69.48194854 30.47602899 -65.73539139 30.43635106 -61.9887085 30.39910889 C-58.16100268 30.35900747 -54.33344465 30.30794321 -50.50585938 30.2578125 C-43.00400783 30.16116951 -35.50208448 30.07672787 -28 30 C-28 29.34 -28 28.68 -28 28 C-22.25 25 -22.25 25 -20 25 C-20 24.01 -20 23.02 -20 22 C-18.35666496 20.96210419 -16.68756133 19.96432076 -15 19 C-14.01 17.515 -14.01 17.515 -13 16 C-10.375 15.8125 -10.375 15.8125 -8 16 C-7.34 14.68 -6.68 13.36 -6 12 C-5.34 12 -4.68 12 -4 12 C-4 10.68 -4 9.36 -4 8 C-3.34 8 -2.68 8 -2 8 C-1.34 5.36 -0.68 2.72 0 0 Z " fill="#703C4E" transform="translate(124,136)"/>
<path d="M0 0 C5.27663613 6.0304413 6.54365197 13.02263787 6.4375 20.75 C6.42920166 21.53930908 6.42090332 22.32861816 6.41235352 23.1418457 C6.1099521 33.6914581 1.98654595 42.16535769 -2.55712891 51.47167969 C-5.1201883 56.87276271 -6.39664062 62.07722736 -7 68 C-7.33 68 -7.66 68 -8 68 C-8.33 65.36 -8.66 62.72 -9 60 C-9.66 60 -10.32 60 -11 60 C-11 59.01 -11 58.02 -11 57 C-11.99 57 -12.98 57 -14 57 C-15.66227326 53.35883 -16.2724556 50.49709631 -16.25 46.5 C-16.25515625 45.5821875 -16.2603125 44.664375 -16.265625 43.71875 C-15.98262598 40.8221718 -15.20350245 38.63624347 -14 36 C-13.01 36 -12.02 36 -11 36 C-10.87625 35.236875 -10.7525 34.47375 -10.625 33.6875 C-10 31 -10 31 -8 28 C-7.34 28 -6.68 28 -6 28 C-5.855625 27.360625 -5.71125 26.72125 -5.5625 26.0625 C-5 24 -5 24 -4 23 C-3.81445263 21.46260752 -3.67680798 19.91932417 -3.5625 18.375 C-3.17304753 14.00308196 -2.35830876 10.16548021 -1 6 C-0.34 6 0.32 6 1 6 C0.4740625 5.071875 0.4740625 5.071875 -0.0625 4.125 C-0.371875 3.42375 -0.68125 2.7225 -1 2 C-0.67 1.34 -0.34 0.68 0 0 Z " fill="#6240B7" transform="translate(203,68)"/>
<path d="M0 0 C0.495 1.485 0.495 1.485 1 3 C1.96188232 2.9685791 2.92376465 2.9371582 3.91479492 2.90478516 C7.54692939 2.79466234 11.17892298 2.7267642 14.81225586 2.67041016 C16.37273108 2.64057683 17.93304379 2.59989326 19.49291992 2.54736328 C30.5596362 2.18452012 38.23853448 3.28046686 48 9 C47.67 10.65 47.34 12.3 47 14 C48.65 14.66 50.3 15.32 52 16 C52.2139219 28.93039049 52.2139219 28.93039049 51 35 C50.01 35.66 49.02 36.32 48 37 C48 36.01 48 35.02 48 34 C47.34 34 46.68 34 46 34 C46.01160156 33.39671875 46.02320312 32.7934375 46.03515625 32.171875 C46.04417969 31.37265625 46.05320312 30.5734375 46.0625 29.75 C46.07410156 28.96109375 46.08570312 28.1721875 46.09765625 27.359375 C46.00385306 25.09308998 45.63241063 23.1711105 45 21 C44.01 21 43.02 21 42 21 C39.67409146 17.36576791 39.83734167 14.22911669 40 10 C39.02160156 10.01740234 39.02160156 10.01740234 38.0234375 10.03515625 C37.14945312 10.04417969 36.27546875 10.05320312 35.375 10.0625 C34.08722656 10.07990234 34.08722656 10.07990234 32.7734375 10.09765625 C30 10 30 10 27.40234375 9.52734375 C21.30775952 8.58271818 15.12793512 8.59640771 8.97070312 8.39453125 C7.96330078 8.35714844 6.95589844 8.31976563 5.91796875 8.28125 C4.99781982 8.25095703 4.0776709 8.22066406 3.12963867 8.18945312 C1 8 1 8 0 7 C-2.63836594 7.09148696 -5.24446105 7.23849401 -7.875 7.4375 C-15.77777778 8 -15.77777778 8 -19 8 C-19 8.33 -19 8.66 -19 9 C-23.40914783 10.10228696 -27.48382401 10.07654536 -32 10 C-31.360625 9.71125 -30.72125 9.4225 -30.0625 9.125 C-27.84793921 8.17176549 -27.84793921 8.17176549 -27 6 C-27.66 5.67 -28.32 5.34 -29 5 C-22.79715256 2.79028997 -17.10398302 2.76434381 -10.5625 2.875 C-9.54478516 2.88402344 -8.52707031 2.89304687 -7.47851562 2.90234375 C-4.98542844 2.92575302 -2.49284141 2.958543 0 3 C0 2.01 0 1.02 0 0 Z " fill="#F6579F" transform="translate(64,102)"/>
<path d="M0 0 C4.90716833 -0.10002068 9.81372362 -0.17200237 14.72167969 -0.21972656 C16.38584754 -0.23965287 18.04994714 -0.26680428 19.71386719 -0.30175781 C31.60447765 -0.54500736 41.23127027 0.44376046 52 6 C52 6.66 52 7.32 52 8 C53.2375 7.938125 54.475 7.87625 55.75 7.8125 C59.64840972 7.79889299 60.90610439 8.65613969 64 11 C66.98584438 11.56277695 69.969471 11.81221081 73 12 C73 13.32 73 14.64 73 16 C66.03285734 17.90012982 60.5127221 15.71426602 54 13 C53.39381836 12.59209229 52.78763672 12.18418457 52.16308594 11.76391602 C43.05082317 6.03846655 32.25194933 7.21537686 21.875 7.1875 C19.84893173 7.16432919 17.82288736 7.13895854 15.796875 7.11132812 C10.86449409 7.04881239 5.93274157 7.01621148 1 7 C0.67 4.69 0.34 2.38 0 0 Z " fill="#3D3068" transform="translate(124,128)"/>
<path d="M0 0 C0.33 1.65 0.66 3.3 1 5 C2.65 4.67 4.3 4.34 6 4 C6 3.34 6 2.68 6 2 C6.66 2 7.32 2 8 2 C8.33 1.34 8.66 0.68 9 0 C16.25723473 0.59485531 16.25723473 0.59485531 19.0625 2.125 C20.59378071 5.18756142 19.71945018 7.76247417 19 11 C18 12 18 12 14.625 12.3125 C11 12 11 12 9.0625 10 C8.711875 9.34 8.36125 8.68 8 8 C7.34 8.66 6.68 9.32 6 10 C5.67 9.01 5.34 8.02 5 7 C4.67 9.97 4.34 12.94 4 16 C3.34 16 2.68 16 2 16 C1.67 15.34 1.34 14.68 1 14 C0.21625 14.185625 -0.5675 14.37125 -1.375 14.5625 C-4 15 -4 15 -6 14 C-6 13.34 -6 12.68 -6 12 C-7.3921875 12.12375 -7.3921875 12.12375 -8.8125 12.25 C-12 12 -12 12 -13.9375 10.375 C-15.34057059 7.23872457 -14.81887495 5.27549981 -14 2 C-12.4176994 1.66179834 -10.83410625 1.32964061 -9.25 1 C-8.36828125 0.814375 -7.4865625 0.62875 -6.578125 0.4375 C-4 0 -4 0 0 0 Z " fill="#F35B98" transform="translate(53,128)"/>
<path d="M0 0 C2.09958252 0.02513984 4.19919437 0.04794287 6.29882812 0.06835938 C11.38745765 0.12284424 16.47464536 0.20879647 21.5625 0.3125 C21.5625 0.6425 21.5625 0.9725 21.5625 1.3125 C19.51171875 1.54036458 17.4609375 1.76822917 15.41015625 1.99609375 C13.55109771 2.13136614 13.55109771 2.13136614 12.5625 3.3125 C11.10402983 3.40945576 9.64135147 3.44451854 8.1796875 3.453125 C-2.36233226 3.63825224 -11.35885144 4.33576362 -21.23046875 8.1015625 C-27.46750513 10.45659451 -33.76058137 11.66391677 -40.4375 11.3125 C-40.7675 9.9925 -41.0975 8.6725 -41.4375 7.3125 C-40.4475 7.3125 -39.4575 7.3125 -38.4375 7.3125 C-38.4375 6.6525 -38.4375 5.9925 -38.4375 5.3125 C-25.6403169 -0.32639787 -13.78493431 -0.2895765 0 0 Z " fill="#6C2E44" transform="translate(58.4375,167.6875)"/>
<path d="M0 0 C0 0.66 0 1.32 0 2 C3.96 2 7.92 2 12 2 C12.495 3.98 12.495 3.98 13 6 C13.99 6.33 14.98 6.66 16 7 C16.495 7.99 16.495 7.99 17 9 C19.02463255 9.65213292 19.02463255 9.65213292 21 10 C20.67 11.32 20.34 12.64 20 14 C19.505 13.525625 19.01 13.05125 18.5 12.5625 C15.00531349 10.37832093 12.09033064 10.34086089 8 10 C8 9.34 8 8.68 8 8 C7.4440918 7.87657227 6.88818359 7.75314453 6.31542969 7.62597656 C4 7 4 7 1.66113281 6.05371094 C-7.88793219 2.28298386 -17.14219759 2.3336642 -27.25 2.25 C-28.97789367 2.22178022 -30.70576021 2.19184463 -32.43359375 2.16015625 C-36.62234611 2.08701133 -40.81077891 2.037005 -45 2 C-45 1.01 -45 0.02 -45 -1 C-39.39529513 -1.19272719 -33.79038259 -1.37137534 -28.18481445 -1.53710938 C-26.27876824 -1.59543293 -24.37283474 -1.65757184 -22.46704102 -1.72363281 C-19.72432988 -1.81803643 -16.98150343 -1.89861713 -14.23828125 -1.9765625 C-13.38913651 -2.00875885 -12.53999176 -2.0409552 -11.66511536 -2.0741272 C-7.28835553 -2.1844238 -3.98663078 -2.07659168 0 0 Z " fill="#6A46C7" transform="translate(168,126)"/>
<path d="M0 0 C1.62992692 0.39695637 3.25392235 0.81832493 4.875 1.25 C6.23238281 1.59804688 6.23238281 1.59804688 7.6171875 1.953125 C10 3 10 3 11.32421875 4.953125 C12 7 12 7 11.9375 9.5 C12.01646257 12.65850291 13.1218515 13.5171793 15 16 C18.52738478 23.75153692 18.32525856 31.63965029 18 40 C16.515 40.495 16.515 40.495 15 41 C12.17753514 38.17753514 12.62978996 36.06080724 12.4375 32.125 C12.18072642 26.48864315 12.18072642 26.48864315 11 21 C10.34 21 9.68 21 9 21 C6.75171948 16.50343896 6.83317728 12.92127034 7 8 C3.71303767 7.20046862 2.28976808 6.90341064 -1 8 C-1.04241723 5.66705225 -1.04092937 3.33297433 -1 1 C-0.67 0.67 -0.34 0.34 0 0 Z " fill="#9164FC" transform="translate(177,48)"/>
<path d="M0 0 C0.33 0 0.66 0 1 0 C1.81246015 10.60711857 -1.24493659 18.15898651 -7.53515625 26.6015625 C-9 28 -9 28 -12 28 C-12.33 27.34 -12.66 26.68 -13 26 C-13.99 25.67 -14.98 25.34 -16 25 C-17.33333333 28 -17.33333333 28 -16 31 C-16.66 31 -17.32 31 -18 31 C-18.33 30.34 -18.66 29.68 -19 29 C-21.97 29.33 -24.94 29.66 -28 30 C-28 29.34 -28 28.68 -28 28 C-22.25 25 -22.25 25 -20 25 C-20 24.01 -20 23.02 -20 22 C-18.35666496 20.96210419 -16.68756133 19.96432076 -15 19 C-14.34 18.01 -13.68 17.02 -13 16 C-10.375 15.8125 -10.375 15.8125 -8 16 C-7.34 14.68 -6.68 13.36 -6 12 C-5.34 12 -4.68 12 -4 12 C-4 10.68 -4 9.36 -4 8 C-3.34 8 -2.68 8 -2 8 C-1.34 5.36 -0.68 2.72 0 0 Z " fill="#863151" transform="translate(124,136)"/>
<path d="M0 0 C2 1 2 1 3.125 4.25 C4 8 4 8 4 13 C18.19 13 32.38 13 47 13 C47 13.33 47 13.66 47 14 C32.48 14 17.96 14 3 14 C2.67 16.97 2.34 19.94 2 23 C1.01 22.67 0.02 22.34 -1 22 C-1 23.32 -1 24.64 -1 26 C-2.875 28.25 -2.875 28.25 -5 30 C-5.66 30 -6.32 30 -7 30 C-6.88544319 28.08268082 -6.75793742 26.1661325 -6.625 24.25 C-6.55539063 23.18265625 -6.48578125 22.1153125 -6.4140625 21.015625 C-6.02101298 18.15303794 -5.35732797 16.4946937 -4 14 C-3.855625 12.906875 -3.71125 11.81375 -3.5625 10.6875 C-2.94036834 6.60908135 -1.74277663 3.71287194 0 0 Z " fill="#D74785" transform="translate(121,122)"/>
<path d="M0 0 C0.33 0 0.66 0 1 0 C0.5852969 7.31654756 -1.31161652 12.69555223 -4.5 19.25 C-5.32763044 20.98213058 -6.15070997 22.71644455 -6.96875 24.453125 C-7.33419922 25.20754883 -7.69964844 25.96197266 -8.07617188 26.73925781 C-9.05949352 29.14558931 -9.56927714 31.44159644 -10 34 C-10.33 34 -10.66 34 -11 34 C-11.03738281 33.39671875 -11.07476562 32.7934375 -11.11328125 32.171875 C-11.5104567 27.34346758 -12.03428237 24.86832735 -15 21 C-15.625 17.625 -15.625 17.625 -15 14 C-13.40708842 12.24605638 -11.70857324 10.90651345 -9.8125 9.48828125 C-7.98118174 7.98454794 -6.96017133 6.64352796 -5.75 4.625 C-4.88375 3.325625 -4.88375 3.325625 -4 2 C-3.01 2 -2.02 2 -1 2 C-0.67 1.34 -0.34 0.68 0 0 Z " fill="#523996" transform="translate(207,96)"/>
<path d="M0 0 C3.02788635 3.46044155 4.98556464 7.52249221 6 12 C5.49986922 14.967809 4.41758552 17.35384037 3 20 C2.34 20 1.68 20 1 20 C0.87625 20.61875 0.7525 21.2375 0.625 21.875 C0 24 0 24 -2 26 C-2.2165625 27.2375 -2.2165625 27.2375 -2.4375 28.5 C-3 31 -3 31 -6 33 C-6.12375 33.825 -6.2475 34.65 -6.375 35.5 C-6.58125 36.325 -6.7875 37.15 -7 38 C-8.64551962 38.71727778 -10.31422289 39.38325228 -12 40 C-13.34410262 42.01735205 -13.34410262 42.01735205 -14 44 C-14.66 44 -15.32 44 -16 44 C-15.47731534 41.23723823 -14.89130413 38.6739124 -14 36 C-13.01 36 -12.02 36 -11 36 C-10.87625 35.236875 -10.7525 34.47375 -10.625 33.6875 C-10 31 -10 31 -8 28 C-7.34 28 -6.68 28 -6 28 C-5.855625 27.360625 -5.71125 26.72125 -5.5625 26.0625 C-5 24 -5 24 -4 23 C-3.81445263 21.46260752 -3.67680798 19.91932417 -3.5625 18.375 C-3.17304753 14.00308196 -2.35830876 10.16548021 -1 6 C-0.34 6 0.32 6 1 6 C0.4740625 5.071875 0.4740625 5.071875 -0.0625 4.125 C-0.371875 3.42375 -0.68125 2.7225 -1 2 C-0.67 1.34 -0.34 0.68 0 0 Z " fill="#734CD7" transform="translate(203,68)"/>
<path d="M0 0 C2.5625 1.5625 2.5625 1.5625 4 4 C3.93957505 7.44422213 3.60093625 9.90417507 1.9375 12.9375 C-1.26063137 14.69131398 -4.45325707 14.6502362 -8 14 C-10 12.4375 -10 12.4375 -11 10 C-11.35773097 6.60155579 -11.58904125 4.14126742 -10 1.0625 C-6.75462393 -0.66160604 -3.53203487 -0.62413468 0 0 Z " fill="#F9F7F9" transform="translate(134,78)"/>
<path d="M0 0 C4.97306516 0.49730652 8.63799813 1.55302334 13 4 C13 4.66 13 5.32 13 6 C14.2375 5.938125 15.475 5.87625 16.75 5.8125 C20.64840972 5.79889299 21.90610439 6.65613969 25 9 C27.98584438 9.56277695 30.969471 9.81221081 34 10 C34 11.32 34 12.64 34 14 C23.93439579 16.74516478 14.30252138 10.89313971 5.59375 6.26953125 C3.35570065 5.17410047 1.43149891 4.47597738 -1 4 C-0.67 2.68 -0.34 1.36 0 0 Z " fill="#463479" transform="translate(163,130)"/>
<path d="M0 0 C1.09017934 3.27053803 0.74403602 5.37286691 0.2578125 8.7265625 C-0.16789778 12.48055314 -0.07858911 16.22772257 0 20 C0.66 20 1.32 20 2 20 C1.67 22.64 1.34 25.28 1 28 C1.66 28 2.32 28 3 28 C3 29.65 3 31.3 3 33 C3.99 33.33 4.98 33.66 6 34 C5.67 37.3 5.34 40.6 5 44 C6.65 44 8.3 44 10 44 C9.34 44.99 8.68 45.98 8 47 C4.875 47.1875 4.875 47.1875 2 47 C1.80664062 45.83082031 1.61328125 44.66164062 1.4140625 43.45703125 C1.15133314 41.90880468 0.88829608 40.3606303 0.625 38.8125 C0.49867187 38.04357422 0.37234375 37.27464844 0.2421875 36.48242188 C-0.30596617 33.28942673 -0.81902823 30.4292363 -2.08203125 27.43359375 C-3.35414659 24.06113479 -3.3392569 20.80532351 -3.3125 17.25 C-3.31121094 16.54423828 -3.30992188 15.83847656 -3.30859375 15.11132812 C-3.20545371 9.49535304 -2.19824092 5.12922882 0 0 Z " fill="#BE3B6E" transform="translate(18,124)"/>
<path d="M0 0 C0.66 0 1.32 0 2 0 C2.33 0.66 2.66 1.32 3 2 C3.99 2.33 4.98 2.66 6 3 C6 3.66 6 4.32 6 5 C8.97 5.495 8.97 5.495 12 6 C12.2139219 18.93039049 12.2139219 18.93039049 11 25 C10.01 25.66 9.02 26.32 8 27 C8 26.01 8 25.02 8 24 C7.34 24 6.68 24 6 24 C6.01160156 23.39671875 6.02320312 22.7934375 6.03515625 22.171875 C6.04417969 21.37265625 6.05320312 20.5734375 6.0625 19.75 C6.07410156 18.96109375 6.08570312 18.1721875 6.09765625 17.359375 C6.00385306 15.09308998 5.63241063 13.1711105 5 11 C4.01 11 3.02 11 2 11 C-0.32590854 7.36576791 -0.16265833 4.22911669 0 0 Z " fill="#FB61A2" transform="translate(104,112)"/>
<path d="M0 0 C3.7 1.4 3.7 1.4 5 4 C5.44036697 9.17431193 5.44036697 9.17431193 4 11.875 C0.74686316 13.70488947 -2.31390109 13.18128355 -6 13 C-6.33 12.01 -6.66 11.02 -7 10 C-7.66 10 -8.32 10 -9 10 C-9.29296875 3.9453125 -9.29296875 3.9453125 -9 2 C-5.51195905 -0.32536063 -4.09859246 -0.33457898 0 0 Z " fill="#F3F2F4" transform="translate(164,78)"/>
<path d="M0 0 C2.70457064 2.19746365 2.94071265 3.636865 3.5 7.0625 C3 10 3 10 0.875 11.9375 C-2.62616696 13.23140953 -4.44867587 13.08083778 -8 12 C-9.875 10.875 -9.875 10.875 -11 9 C-11.375 5.4375 -11.375 5.4375 -11 2 C-7.2237362 -0.5175092 -4.43646723 -0.73941121 0 0 Z " fill="#F3F2F5" transform="translate(104,78)"/>
<path d="M0 0 C0.71027344 0.0721875 1.42054687 0.144375 2.15234375 0.21875 C3.07144531 0.3115625 3.99054688 0.404375 4.9375 0.5 C5.85402344 0.5928125 6.77054687 0.685625 7.71484375 0.78125 C10.77360545 1.07405454 10.85359025 1.04880325 14 0 C14.33 0.99 14.66 1.98 15 3 C17.01508358 3.73323796 17.01508358 3.73323796 19 4 C18.67 5.65 18.34 7.3 18 9 C17.34 9 16.68 9 16 9 C16 10.98 16 12.96 16 15 C16.99 15.33 17.98 15.66 19 16 C18.34 16 17.68 16 17 16 C15.99782936 19.58327753 15.99782936 19.58327753 17 23 C16.01 23 15.02 23 14 23 C13.34 22.01 12.68 21.02 12 20 C9.89955229 19.56826811 9.89955229 19.56826811 7.5625 19.5625 C3.24649324 19.20167628 3.24649324 19.20167628 0.9375 17.3125 C-0.23506168 14.42018118 -0.21079572 12.09167049 0 9 C0.33 9 0.66 9 1 9 C1.33 11.31 1.66 13.62 2 16 C8.28851034 17.29616272 8.28851034 17.29616272 14 15 C14.23428313 10.2102679 14.23428313 10.2102679 12 6 C7.45145106 5.7017345 3.43848796 5.89037801 -1 7 C-0.7525 6.1028125 -0.7525 6.1028125 -0.5 5.1875 C0.1114124 2.88655664 0.1114124 2.88655664 0 0 Z " fill="#8961F1" transform="translate(92,73)"/>
<path d="M0 0 C-4.625 3 -4.625 3 -8 3 C-8 3.66 -8 4.32 -8 5 C-14.74829775 6.02861712 -21.33743674 6.12976314 -28.15625 6.09765625 C-29.29912476 6.0962413 -30.44199951 6.09482635 -31.61950684 6.09336853 C-35.24636525 6.08780025 -38.87316045 6.07525362 -42.5 6.0625 C-44.9687491 6.0574809 -47.43749918 6.05291871 -49.90625 6.04882812 C-55.93752133 6.03784121 -61.96875615 6.02113485 -68 6 C-65.53452103 3.53452103 -64.81228412 3.7387304 -61.41772461 3.69702148 C-60.46590805 3.68037949 -59.51409149 3.66373749 -58.53343201 3.64659119 C-57.50017288 3.63817703 -56.46691376 3.62976288 -55.40234375 3.62109375 C-54.33891251 3.60409927 -53.27548126 3.5871048 -52.17982483 3.56959534 C-48.7657777 3.51633117 -45.35174123 3.47616447 -41.9375 3.4375 C-38.54832008 3.39339704 -35.15922894 3.34643443 -31.77015686 3.29469299 C-29.65990334 3.26306714 -27.54957352 3.23607859 -25.43919373 3.21446228 C-19.55652954 3.13297786 -13.83646469 2.74836137 -8 2 C-8 1.34 -8 0.68 -8 0 C-4.71303767 -0.79953138 -3.28976808 -1.09658936 0 0 Z " fill="#C44073" transform="translate(104,161)"/>
<path d="M0 0 C0.66 0 1.32 0 2 0 C1.690625 0.928125 1.38125 1.85625 1.0625 2.8125 C-0.16838173 7.04257241 -0.45779581 11.26330536 -0.75390625 15.64453125 C-1 18 -1 18 -2 20 C-2.06909046 22.27566699 -1.99748396 24.5329524 -1.9375 26.80859375 C-2 29 -2 29 -3 32 C-3.03954234 34.33299825 -3.04401732 36.66708189 -3 39 C-3.66 39 -4.32 39 -5 39 C-7.5919703 35.11204456 -7.38382266 30.94170117 -7.375 26.4375 C-7.37411377 25.6340918 -7.37322754 24.83068359 -7.37231445 24.00292969 C-7.24140262 17.39221427 -5.93198408 11.9585483 -3 6 C-2.69191406 5.34128906 -2.38382812 4.68257813 -2.06640625 4.00390625 C-1.41354451 2.65132666 -0.71417846 1.32123016 0 0 Z " fill="#7751D7" transform="translate(70,66)"/>
<path d="M0 0 C4.42929394 2.1687815 7.64500436 5.40637897 10.640625 9.29296875 C11.578125 13.10546875 11.578125 13.10546875 11.640625 16.29296875 C11.970625 17.28296875 12.300625 18.27296875 12.640625 19.29296875 C11.980625 19.29296875 11.320625 19.29296875 10.640625 19.29296875 C10.66125 20.22109375 10.681875 21.14921875 10.703125 22.10546875 C10.640625 25.29296875 10.640625 25.29296875 9.640625 28.29296875 C9.4859375 30.21109375 9.4859375 30.21109375 9.328125 32.16796875 C8.88282705 36.19049356 7.48660316 38.35518485 4.640625 41.29296875 C5.515625 34.41796875 5.515625 34.41796875 6.640625 33.29296875 C7.04340925 30.49993925 7.3939117 27.72150268 7.703125 24.91796875 C7.79400391 24.13679688 7.88488281 23.355625 7.97851562 22.55078125 C8.33166548 19.44943512 8.640625 16.41684833 8.640625 13.29296875 C7.980625 13.29296875 7.320625 13.29296875 6.640625 13.29296875 C5.2679568 11.31975822 3.93634883 9.31753723 2.640625 7.29296875 C1.980625 6.63296875 1.320625 5.97296875 0.640625 5.29296875 C0.640625 3.97296875 0.640625 2.65296875 0.640625 1.29296875 C-0.349375 1.62296875 -1.339375 1.95296875 -2.359375 2.29296875 C-3.019375 1.63296875 -3.679375 0.97296875 -4.359375 0.29296875 C-2.359375 -0.70703125 -2.359375 -0.70703125 0 0 Z " fill="#7E57DF" transform="translate(191.359375,54.70703125)"/>
<path d="M0 0 C0.99 0 1.98 0 3 0 C4.4606285 2.64738916 5 3.89448334 5 7 C5.99 7.33 6.98 7.66 8 8 C9.50524531 11.54377754 9.09752721 15.46706136 9.0625 19.25 C9.05347656 20.51328125 9.04445312 21.7765625 9.03515625 23.078125 C9.02355469 24.04234375 9.01195312 25.0065625 9 26 C8.01 26.33 7.02 26.66 6 27 C3.21677294 24.21677294 3.70090077 22.32530336 3.5625 18.4375 C3.26658588 13.10556587 2.57051303 8.63403317 0.62109375 3.671875 C0 2 0 2 0 0 Z " fill="#9E75FC" transform="translate(186,62)"/>
<path d="M0 0 C0.33 0 0.66 0 1 0 C1 1.65 1 3.3 1 5 C5.7591356 3.71283239 5.7591356 3.71283239 10.35282898 1.94961548 C13.42801304 0.84645956 15.90293691 0.72170265 19.16723633 0.68115234 C20.38812454 0.66128265 21.60901276 0.64141296 22.86689758 0.62094116 C24.82963875 0.60361435 24.82963875 0.60361435 26.83203125 0.5859375 C28.19253194 0.56721453 29.55302117 0.54764027 30.91349792 0.5272522 C34.48246479 0.47604398 38.05146926 0.43635813 41.62060547 0.39910889 C45.26734635 0.35899799 48.91393234 0.30793808 52.56054688 0.2578125 C59.70691768 0.16118739 66.85338575 0.07673999 74 0 C71.41644149 2.58355851 70.39904404 2.25064698 66.80688477 2.25537109 C65.17862511 2.26580948 65.17862511 2.26580948 63.51747131 2.27645874 C61.74731911 2.27496323 61.74731911 2.27496323 59.94140625 2.2734375 C57.4459592 2.29374428 54.95051653 2.31459538 52.45507812 2.3359375 C48.51859867 2.35844985 44.5822926 2.37497039 40.64575195 2.38085938 C36.84814965 2.39044142 33.05133111 2.42431057 29.25390625 2.4609375 C28.09202286 2.45589203 26.93013947 2.45084656 25.73304749 2.44564819 C18.95073938 2.52640711 13.5828448 3.46466441 7.33091736 6.14395142 C5 7 5 7 1 7 C1 7.66 1 8.32 1 9 C0.01 9 -0.98 9 -2 9 C-1.34 6.03 -0.68 3.06 0 0 Z " fill="#902E54" transform="translate(19,166)"/>
<path d="M0 0 C3.0625 0.3125 3.0625 0.3125 5 1.375 C6.69431173 4.46462727 5.80201685 6.98467418 5.0625 10.3125 C4.0625 11.3125 4.0625 11.3125 0.625 11.5 C-2.9375 11.3125 -2.9375 11.3125 -4.9375 9.3125 C-5.1875 5.8125 -5.1875 5.8125 -4.9375 2.3125 C-2.9375 0.3125 -2.9375 0.3125 0 0 Z " fill="#E3D7DF" transform="translate(66.9375,128.6875)"/>
<path d="M0 0 C1.32850242 6.40096618 1.32850242 6.40096618 -0.0625 8.9375 C-2.82668977 10.45334601 -4.90228335 10.32954432 -8 10 C-10 8 -10 8 -10.3125 4.5 C-10.209375 3.345 -10.10625 2.19 -10 1 C-6.1496895 -1.56687367 -4.41430237 -0.83288724 0 0 Z " fill="#F5F4F7" transform="translate(95,130)"/>
<path d="M0 0 C2 2 2 2 2.25 4.9375 C2 8 2 8 0 11 C-2.9375 11.4375 -2.9375 11.4375 -6 11 C-7.9375 9.375 -7.9375 9.375 -9 7 C-8.8125 3.8125 -8.8125 3.8125 -8 1 C-5.23749964 -0.38125018 -3.05268901 -0.19079306 0 0 Z " fill="#E6DFE5" transform="translate(47,129)"/>
<path d="M0 0 C0.66 0.99 1.32 1.98 2 3 C3.92902828 3.47393562 3.92902828 3.47393562 6.17431641 3.43237305 C7.03505768 3.45216721 7.89579895 3.47196136 8.78262329 3.49235535 C9.71287323 3.49874527 10.64312317 3.50513519 11.6015625 3.51171875 C13.02896255 3.53864555 13.02896255 3.53864555 14.48519897 3.56611633 C17.5317539 3.62040249 20.57815057 3.65417359 23.625 3.6875 C25.68752212 3.72065692 27.75002329 3.75514504 29.8125 3.79101562 C34.8748861 3.87613944 39.93722378 3.94286304 45 4 C45 4.33 45 4.66 45 5 C30.48 5 15.96 5 1 5 C0.67 7.97 0.34 10.94 0 14 C-0.99 13.67 -1.98 13.34 -3 13 C-3 14.32 -3 15.64 -3 17 C-4.875 19.25 -4.875 19.25 -7 21 C-7.66 21 -8.32 21 -9 21 C-8.67 19.35 -8.34 17.7 -8 16 C-7.01 15.67 -6.02 15.34 -5 15 C-4.39938767 13.09821215 -4.39938767 13.09821215 -4 11 C-3.34 10.01 -2.68 9.02 -2 8 C-2 6.989375 -2 5.97875 -2 4.9375 C-2 2 -2 2 0 0 Z " fill="#AE608B" transform="translate(123,131)"/>
<path d="M0 0 C5.36964286 0.34642857 5.36964286 0.34642857 8 1 C9.5625 2.875 9.5625 2.875 10 5 C9.67 5.99 9.34 6.98 9 8 C8.34 7.67 7.68 7.34 7 7 C2.85496339 6.75212983 2.85496339 6.75212983 -1 8 C-1.46523063 9.89533342 -1.46523063 9.89533342 -1.625 12.0625 C-1.74875 13.361875 -1.8725 14.66125 -2 16 C-1.34 16 -0.68 16 0 16 C0.66 16.66 1.32 17.32 2 18 C4.68839385 18.26991906 7.29141936 18.08737357 10 18 C10 18.66 10 19.32 10 20 C8.39667209 20.08121924 6.79215974 20.13929134 5.1875 20.1875 C3.84751953 20.23970703 3.84751953 20.23970703 2.48046875 20.29296875 C0 20 0 20 -1.77734375 18.828125 C-3.41227851 16.38355802 -3.54387004 14.48399579 -3.75 11.5625 C-3.82734375 10.61503906 -3.9046875 9.66757813 -3.984375 8.69140625 C-3.99866701 6.22960814 -3.72896012 4.33598583 -3 2 C-2.01 2 -1.02 2 0 2 C0 1.34 0 0.68 0 0 Z " fill="#987AE0" transform="translate(157,72)"/>
<path d="M0 0 C0.66 0 1.32 0 2 0 C2.2475 0.721875 2.495 1.44375 2.75 2.1875 C4.10808651 5.24319464 5.90383713 7.41473246 8 10 C8 10.66 8 11.32 8 12 C8.66 12 9.32 12 10 12 C10.33 13.32 10.66 14.64 11 16 C10.38125 16.268125 9.7625 16.53625 9.125 16.8125 C6.7004767 17.95556848 6.7004767 17.95556848 5 21 C4.74605469 20.10796875 4.49210938 19.2159375 4.23046875 18.296875 C3.88628906 17.12640625 3.54210937 15.9559375 3.1875 14.75 C2.85105469 13.58984375 2.51460937 12.4296875 2.16796875 11.234375 C1.10038414 8.27798685 0.03570917 6.35652294 -2 4 C-1.34 2.68 -0.68 1.36 0 0 Z " fill="#8B5CFB" transform="translate(190,56)"/>
<path d="M0 0 C3 1 3 1 4 3 C4.66 2.67 5.32 2.34 6 2 C3.99216826 6.81879617 0.60251625 8.80874465 -4 11 C-7 11.3125 -7 11.3125 -9 11 C-9 10.67 -9 10.34 -9 10 C-11.97 9.505 -11.97 9.505 -15 9 C-12.65408148 6.2289312 -10.85223799 5.47940716 -7.3125 4.8125 C-6.10013672 4.57466797 -6.10013672 4.57466797 -4.86328125 4.33203125 C-3.94095703 4.16767578 -3.94095703 4.16767578 -3 4 C-2.67 4.99 -2.34 5.98 -2 7 C-1.34 7 -0.68 7 0 7 C-0.66 5.68 -1.32 4.36 -2 3 C-1.34 2.01 -0.68 1.02 0 0 Z " fill="#692B42" transform="translate(108,160)"/>
<path d="M0 0 C0.33 0 0.66 0 1 0 C1.4025134 11.31509887 1.4025134 11.31509887 -1 16 C-2.6875 16.75 -2.6875 16.75 -5 17 C-10.59822581 18.22143108 -13.0913586 19.87421186 -17 24 C-17.99 24 -18.98 24 -20 24 C-20 23.34 -20 22.68 -20 22 C-18.33720673 20.9935725 -16.67016516 19.99414593 -15 19 C-14.34 18.01 -13.68 17.02 -13 16 C-10.375 15.8125 -10.375 15.8125 -8 16 C-7.34 14.68 -6.68 13.36 -6 12 C-5.34 12 -4.68 12 -4 12 C-4 10.68 -4 9.36 -4 8 C-3.34 8 -2.68 8 -2 8 C-1.34 5.36 -0.68 2.72 0 0 Z " fill="#9F355F" transform="translate(124,136)"/>
<path d="M0 0 C0.33 0 0.66 0 1 0 C1.66 4.29 2.32 8.58 3 13 C3.99 13 4.98 13 6 13 C6 13.99 6 14.98 6 16 C6.99 15.67 7.98 15.34 9 15 C9.33 18.96 9.66 22.92 10 27 C7 24 7 24 6 21 C5.175 20.2575 4.35 19.515 3.5 18.75 C0.49287489 15.44216238 0.33628209 13.37166718 0 9 C-0.33 8.67 -0.66 8.34 -1 8 C-1.125 4.5 -1.125 4.5 -1 1 C-0.67 0.67 -0.34 0.34 0 0 Z " fill="#744BDD" transform="translate(186,112)"/>
<path d="M0 0 C5.072007 -0.04942365 10.14387394 -0.08573068 15.21606445 -0.10986328 C16.94167523 -0.11992326 18.66726895 -0.13357276 20.39282227 -0.15087891 C22.8726014 -0.17512754 25.35215523 -0.18648301 27.83203125 -0.1953125 C28.60400345 -0.20563507 29.37597565 -0.21595764 30.17134094 -0.22659302 C33.99281476 -0.22739422 35.74136107 -0.17242595 39 2 C25.88977782 2.96398692 13.11349219 2.8981844 0 2 C0 1.34 0 0.68 0 0 Z " fill="#442E7E" transform="translate(124,128)"/>
<path d="M0 0 C0.33 0 0.66 0 1 0 C0.88541307 1.43836751 0.75790884 2.87570966 0.625 4.3125 C0.55539063 5.11300781 0.48578125 5.91351563 0.4140625 6.73828125 C0 9 0 9 -2 12 C-2.99 12 -3.98 12 -5 12 C-8.11681225 12.81664605 -8.11681225 12.81664605 -11 14 C-11.33 14.66 -11.66 15.32 -12 16 C-12.99 16 -13.98 16 -15 16 C-13.85294698 12.55884094 -12.33415583 11.58726821 -9.5546875 9.40625 C-7.70187446 7.84773903 -7.70187446 7.84773903 -5.8125 4.6875 C-5.214375 3.800625 -4.61625 2.91375 -4 2 C-3.01 2 -2.02 2 -1 2 C-0.67 1.34 -0.34 0.68 0 0 Z " fill="#583CA1" transform="translate(207,96)"/>
<path d="M0 0 C1.53069975 3.0613995 0.51513345 5.6802511 0 9 C0 10.32 0 11.64 0 13 C0.66 13 1.32 13 2 13 C2 13.99 2 14.98 2 16 C2.66 16 3.32 16 4 16 C3.67 17.65 3.34 19.3 3 21 C2.34 21 1.68 21 1 21 C1 20.01 1 19.02 1 18 C0.01 18 -0.98 18 -2 18 C-4.24828052 13.50343896 -4.16682272 9.92127034 -4 5 C-3.34 5 -2.68 5 -2 5 C-1.34 3.35 -0.68 1.7 0 0 Z " fill="#6C47C9" transform="translate(191,107)"/>
<path d="M0 0 C0.99 0.33 1.98 0.66 3 1 C3.2139219 13.93039049 3.2139219 13.93039049 2 20 C1.01 20.66 0.02 21.32 -1 22 C-1 21.01 -1 20.02 -1 19 C-1.66 19 -2.32 19 -3 19 C-3 16.69 -3 14.38 -3 12 C-2.34 11.67 -1.68 11.34 -1 11 C-1 12.32 -1 13.64 -1 15 C-0.34 15 0.32 15 1 15 C0.76603516 13.62714844 0.76603516 13.62714844 0.52734375 12.2265625 C0.23537109 10.44378906 0.23537109 10.44378906 -0.0625 8.625 C-0.25972656 7.44164063 -0.45695312 6.25828125 -0.66015625 5.0390625 C-1 2 -1 2 0 0 Z " fill="#FD62A6" transform="translate(113,117)"/>
<path d="M0 0 C3.96 0 7.92 0 12 0 C12.33 1.32 12.66 2.64 13 4 C13.99 4.33 14.98 4.66 16 5 C16.33 5.66 16.66 6.32 17 7 C19.02463255 7.65213292 19.02463255 7.65213292 21 8 C20.67 9.32 20.34 10.64 20 12 C19.443125 11.54625 18.88625 11.0925 18.3125 10.625 C15.94686561 8.96266232 13.70984342 7.97855457 11 7 C11 6.34 11 5.68 11 5 C10.01 5 9.02 5 8 5 C8 4.34 8 3.68 8 3 C6.35 3 4.7 3 3 3 C3 2.34 3 1.68 3 1 C2.01 0.67 1.02 0.34 0 0 Z " fill="#744CDA" transform="translate(168,128)"/>
<path d="M0 0 C1.09017934 3.27053803 0.74403602 5.37286691 0.2578125 8.7265625 C-0.16789778 12.48055314 -0.07858911 16.22772257 0 20 C0.66 20 1.32 20 2 20 C1.67 21.98 1.34 23.96 1 26 C-0.32 25.67 -1.64 25.34 -3 25 C-3.55353075 8.29157175 -3.55353075 8.29157175 0 0 Z " fill="#CA487C" transform="translate(18,124)"/>
<path d="M0 0 C0.99 0.33 1.98 0.66 3 1 C2.39644592 4.85025879 1.23227397 7.86101159 -0.5625 11.3125 C-1.01753906 12.19550781 -1.47257813 13.07851562 -1.94140625 13.98828125 C-2.29074219 14.65214844 -2.64007813 15.31601563 -3 16 C-4.58158962 12.99112219 -5.43945339 10.36327963 -6 7 C-5.195625 6.401875 -4.39125 5.80375 -3.5625 5.1875 C-0.77672016 3.19052724 -0.77672016 3.19052724 0 0 Z " fill="#453378" transform="translate(202,106)"/>
<path d="M0 0 C0.66 0 1.32 0 2 0 C2.33923576 2.35344806 2.67150534 4.7075484 3 7.0625 C3.09539062 7.71927734 3.19078125 8.37605469 3.2890625 9.05273438 C3.88887674 13.40138763 4.09127093 17.61329071 4 22 C3.34 22 2.68 22 2 22 C0.33325679 19.08175756 -0.2432008 17.02405621 -0.1953125 13.671875 C-0.18886719 12.87265625 -0.18242188 12.0734375 -0.17578125 11.25 C-0.15902344 10.425 -0.14226563 9.6 -0.125 8.75 C-0.11597656 7.90953125 -0.10695312 7.0690625 -0.09765625 6.203125 C-0.07415817 4.13529396 -0.03828908 2.06761005 0 0 Z " fill="#745CB2" transform="translate(63,83)"/>
<path d="M0 0 C3.15275397 0.47769 5.56066866 1.25029851 8.5 2.5625 C11.73439147 3.89091078 13.58092386 4.3108251 17 4 C17 5.32 17 6.64 17 8 C11.51053913 9.12029814 8.16569441 8.79217969 3 7 C4.32 6.67 5.64 6.34 7 6 C6.401875 5.566875 5.80375 5.13375 5.1875 4.6875 C3.29216913 3.22538761 1.6471407 1.72949773 0 0 Z " fill="#5539A1" transform="translate(180,136)"/>
<path d="M0 0 C2 1 2 1 3.25 4.5 C4.11625 6.2325 4.11625 6.2325 5 8 C8.08369887 9.05749557 8.08369887 9.05749557 11 9 C10 10.5 10 10.5 8 12 C5.28153765 12.27345479 2.74322801 12.13491285 0 12 C-1.16063604 7.74433453 -0.76173392 4.3164922 0 0 Z " fill="#DE4D85" transform="translate(36,131)"/>
<path d="M0 0 C0.66 0 1.32 0 2 0 C2.33 1.65 2.66 3.3 3 5 C4.65 4.67 6.3 4.34 8 4 C8 3.34 8 2.68 8 2 C8.66 2 9.32 2 10 2 C10.33 1.34 10.66 0.68 11 0 C11.66 0.66 12.32 1.32 13 2 C11.375 7.75 11.375 7.75 8 10 C7.67 9.01 7.34 8.02 7 7 C6.01 8.485 6.01 8.485 5 10 C4.01 10.33 3.02 10.66 2 11 C1.34 7.37 0.68 3.74 0 0 Z " fill="#EF5391" transform="translate(51,128)"/>
<path d="M0 0 C0.66 0.33 1.32 0.66 2 1 C1.67 1.33 1.34 1.66 1 2 C0.74996036 5.45821402 0.74996036 5.45821402 1 9 C3.76223278 11.76223278 6.20706617 11.57856291 10 12 C8 14 8 14 4.0625 14.375 C1.20847167 14.28694468 0.30059617 14.23484076 -2 12.4375 C-3.37020241 9.09763163 -3.3898913 6.57400356 -3 3 C-1.5 1.0625 -1.5 1.0625 0 0 Z " fill="#CCC8D6" transform="translate(126,78)"/>
<path d="M0 0 C1.33333333 0.66666667 2.66666667 1.33333333 4 2 C4 2.99 4 3.98 4 5 C9.445 4.505 9.445 4.505 15 4 C14.67 4.99 14.34 5.98 14 7 C13.40832031 6.9071875 12.81664062 6.814375 12.20703125 6.71875 C9.60554802 6.48109411 7.55490925 6.41797712 5 7 C3.15896284 8.95690664 2.0737259 10.85254819 0.875 13.25 C0.58625 13.8275 0.2975 14.405 0 15 C-0.33 15 -0.66 15 -1 15 C-1 11.7 -1 8.4 -1 5 C-0.01 5 0.98 5 2 5 C1.01 4.34 0.02 3.68 -1 3 C-0.67 2.01 -0.34 1.02 0 0 Z " fill="#8962F2" transform="translate(121,72)"/>
<path d="M0 0 C0.33 0 0.66 0 1 0 C1.268125 1.11375 1.53625 2.2275 1.8125 3.375 C2.65809019 7.21840951 2.65809019 7.21840951 6 9 C7.9896995 9.39013716 9.99019869 9.73202649 12 10 C10.9375 11.5625 10.9375 11.5625 9 13 C5.27019856 12.9333964 2.92343938 12.80428591 0.0625 10.3125 C-1.28907329 7.37084049 -1.27858381 5.20371381 -1 2 C-0.67 1.34 -0.34 0.68 0 0 Z " fill="#493D5F" transform="translate(122,83)"/>
<path d="M0 0 C0.33 0 0.66 0 1 0 C1.103125 1.093125 1.20625 2.18625 1.3125 3.3125 C1.73329605 6.83547709 1.73329605 6.83547709 3.1875 8.875 C5.69974914 10.43432705 8.09150946 10.67683438 11 11 C9.875 12.5625 9.875 12.5625 8 14 C4.94290154 13.8726209 2.79273045 13.44921392 0.125 11.9375 C-1.75960168 8.6917971 -1.2352849 5.70573718 -1 2 C-0.67 1.34 -0.34 0.68 0 0 Z " fill="#423957" transform="translate(153,82)"/>
<path d="M0 0 C0.33 0 0.66 0 1 0 C1.165 1.093125 1.33 2.18625 1.5 3.3125 C2.56869679 7.00544504 2.56869679 7.00544504 4.9140625 8.1328125 C6.92903553 8.86617724 8.9175375 9.49149172 11 10 C9.6875 11.5078125 9.6875 11.5078125 8 13 C4.94290154 12.8726209 2.79273045 12.44921392 0.125 10.9375 C-1.75586444 7.69823347 -1.2382885 4.69347174 -1 1 C-0.67 0.67 -0.34 0.34 0 0 Z " fill="#483C60" transform="translate(91,83)"/>
<path d="M0 0 C0.33 0 0.66 0 1 0 C1 1.65 1 3.3 1 5 C5.83637189 3.68451812 5.83637189 3.68451812 10.5 1.875 C13.73544673 0.74259364 16.59940998 0.86664353 20 1 C16.90820709 2.6188161 13.77147242 3.91167918 10.5 5.125 C9.5615625 5.47820312 8.623125 5.83140625 7.65625 6.1953125 C5 7 5 7 1 7 C1 7.66 1 8.32 1 9 C0.01 9 -0.98 9 -2 9 C-1.34 6.03 -0.68 3.06 0 0 Z " fill="#97375D" transform="translate(19,166)"/>
<path d="M0 0 C1.67542976 0.28604898 3.34385343 0.61781233 5 1 C4.67 3.31 4.34 5.62 4 8 C6.97 8 9.94 8 13 8 C13 8.33 13 8.66 13 9 C8.71 9 4.42 9 0 9 C-0.87890625 2.84765625 -0.87890625 2.84765625 -1 1 C-0.67 0.67 -0.34 0.34 0 0 Z " fill="#7450E5" transform="translate(67,96)"/>
<path d="M0 0 C-0.66 0 -1.32 0 -2 0 C-1.98839844 0.61488281 -1.97679687 1.22976562 -1.96484375 1.86328125 C-1.95130859 3.07564453 -1.95130859 3.07564453 -1.9375 4.3125 C-1.92589844 5.11300781 -1.91429687 5.91351563 -1.90234375 6.73828125 C-2 9 -2 9 -3 12 C-4.65 12.33 -6.3 12.66 -8 13 C-7.67 11.96875 -7.34 10.9375 -7 9.875 C-6.0284808 6.51573291 -5.82883229 3.50893798 -6 0 C-3 -1 -3 -1 0 0 Z " fill="#875AFB" transform="translate(143,81)"/>
<path d="M0 0 C0.33 0 0.66 0 1 0 C1.43112315 4.91480393 1.49648044 7.88224653 -1.375 12 C-2.24125 12.99 -3.1075 13.98 -4 15 C-4.66 15 -5.32 15 -6 15 C-6.6875 13.1875 -6.6875 13.1875 -7 11 C-5.625 9.4375 -5.625 9.4375 -4 8 C-3.67 7.01 -3.34 6.02 -3 5 C-2.34 5 -1.68 5 -1 5 C-0.67 3.35 -0.34 1.7 0 0 Z " fill="#6844C1" transform="translate(207,83)"/>
<path d="M0 0 C1.258125 -0.020625 2.51625 -0.04125 3.8125 -0.0625 C4.52019531 -0.07410156 5.22789062 -0.08570312 5.95703125 -0.09765625 C8 0 8 0 11 1 C11 1.66 11 2.32 11 3 C12.65 3 14.3 3 16 3 C16 3.66 16 4.32 16 5 C16.99 5 17.98 5 19 5 C19.33 5.99 19.66 6.98 20 8 C18.68 8 17.36 8 16 8 C16 7.34 16 6.68 16 6 C15.46890625 5.87753906 14.9378125 5.75507813 14.390625 5.62890625 C11.46272452 4.85865792 8.61888994 3.90419117 5.75 2.9375 C4.67234375 2.57527344 3.5946875 2.21304688 2.484375 1.83984375 C1.66453125 1.56269531 0.8446875 1.28554687 0 1 C0 0.67 0 0.34 0 0 Z " fill="#6041B5" transform="translate(160,128)"/>
<path d="M0 0 C0.66 0 1.32 0 2 0 C2 0.66 2 1.32 2 2 C2.99 2.33 3.98 2.66 5 3 C7.1519437 6.22791555 7.20086443 7.28400809 7 11 C5.25372522 8.38058783 4.61277612 6.96175123 4 4 C3.01 4 2.02 4 1 4 C1.33 4.598125 1.66 5.19625 2 5.8125 C3 8 3 8 3 11 C2.34 11 1.68 11 1 11 C-0.59555725 7.50971852 -1.32049797 4.84597567 -1 1 C-0.67 0.67 -0.34 0.34 0 0 Z " fill="#9B72F9" transform="translate(185,58)"/>
<path d="M0 0 C0.33 0 0.66 0 1 0 C1.20413361 5.73842251 1.27141454 10.60539047 -1 16 C-1.66 16 -2.32 16 -3 16 C-3.33 13.36 -3.66 10.72 -4 8 C-3.34 8 -2.68 8 -2 8 C-1.34 5.36 -0.68 2.72 0 0 Z " fill="#9D3C62" transform="translate(124,136)"/>
<path d="M0 0 C0.66 0.33 1.32 0.66 2 1 C0.76344399 4.42430894 -0.40112619 7.40112619 -3 10 C-5.6875 10.25 -5.6875 10.25 -8 10 C-7.34 8.68 -6.68 7.36 -6 6 C-5.01 6 -4.02 6 -3 6 C-3 4.68 -3 3.36 -3 2 C-2.01 1.34 -1.02 0.68 0 0 Z " fill="#733249" transform="translate(120,151)"/>
<path d="M0 0 C0.66 0 1.32 0 2 0 C2.433125 1.3921875 2.433125 1.3921875 2.875 2.8125 C3.8875 6.09791667 3.8875 6.09791667 6 9 C6.14221065 11.60245498 6.18802932 14.09117684 6.125 16.6875 C6.11597656 17.38939453 6.10695312 18.09128906 6.09765625 18.81445312 C6.07413704 20.54311525 6.03826713 22.27160145 6 24 C5.67 24 5.34 24 5 24 C5 19.71 5 15.42 5 11 C4.34 11 3.68 11 3 11 C3 10.01 3 9.02 3 8 C2.34 8 1.68 8 1 8 C0.67 5.36 0.34 2.72 0 0 Z " fill="#5B3DAA" transform="translate(190,112)"/>
<path d="M0 0 C1.65 0 3.3 0 5 0 C5.33 2.31 5.66 4.62 6 7 C4.02 7 2.04 7 0 7 C-1.125 2.25 -1.125 2.25 0 0 Z " fill="#F8FAFB" transform="translate(64,130)"/>
<path d="M0 0 C0.33 0 0.66 0 1 0 C1 4.62 1 9.24 1 14 C-0.65 14.33 -2.3 14.66 -4 15 C-4 11 -4 11 -2.5625 9.1875 C-0.45488028 6.23683239 -0.34207857 3.55761712 0 0 Z " fill="#6549AF" transform="translate(208,84)"/>
<path d="M0 0 C0.33 0 0.66 0 1 0 C1.07427838 3.34252724 1.06546953 5.8035914 0 9 C-0.1546875 10.918125 -0.1546875 10.918125 -0.3125 12.875 C-0.75779795 16.89752481 -2.15402184 19.0622161 -5 22 C-4.125 15.125 -4.125 15.125 -3 14 C-2.62831518 11.839582 -2.30208609 9.67124378 -2 7.5 C-1.11111111 1.11111111 -1.11111111 1.11111111 0 0 Z " fill="#7B51EB" transform="translate(201,74)"/>
<path d="M0 0 C0.99 0 1.98 0 3 0 C3.67756882 1.55780332 4.34159457 3.12150096 5 4.6875 C5.37125 5.55761719 5.7425 6.42773438 6.125 7.32421875 C7.01870488 10.0572002 7.16449676 12.14700934 7 15 C4.66302971 12.66302971 3.72905946 10.50902101 2.375 7.5 C1.92898437 6.5203125 1.48296875 5.540625 1.0234375 4.53125 C0 2 0 2 0 0 Z " fill="#BC9CFB" transform="translate(186,62)"/>
<path d="M0 0 C4.875 4.625 4.875 4.625 6 8 C6.03954234 10.33299825 6.04401732 12.66708189 6 15 C5.34 15 4.68 15 4 15 C3.566875 13.4221875 3.566875 13.4221875 3.125 11.8125 C2.11069449 8.13822169 2.11069449 8.13822169 0.875 5.25 C0 3 0 3 0 0 Z " fill="#FA8DC1" transform="translate(108,117)"/>
<path d="M0 0 C-4.625 3 -4.625 3 -8 3 C-8 3.66 -8 4.32 -8 5 C-10.64 5 -13.28 5 -16 5 C-12.93882432 2.37613513 -12.26826873 2 -8 2 C-8 1.34 -8 0.68 -8 0 C-4.71303767 -0.79953138 -3.28976808 -1.09658936 0 0 Z " fill="#C53F73" transform="translate(104,161)"/>
<path d="M0 0 C0.66 0 1.32 0 2 0 C2 1.65 2 3.3 2 5 C2.99 5.33 3.98 5.66 5 6 C4.67 8.64 4.34 11.28 4 14 C3.67 13.01 3.34 12.02 3 11 C2.34 11 1.68 11 1 11 C0.67 7.37 0.34 3.74 0 0 Z " fill="#D7437E" transform="translate(19,152)"/>
<path d="M0 0 C0.99 0.33 1.98 0.66 3 1 C3 4.63 3 8.26 3 12 C1 11 1 11 0.33203125 9.00390625 C0.16058594 8.19824219 -0.01085937 7.39257812 -0.1875 6.5625 C-0.36667969 5.75941406 -0.54585938 4.95632812 -0.73046875 4.12890625 C-1 2 -1 2 0 0 Z " fill="#FB589E" transform="translate(113,117)"/>
<path d="M0 0 C0.66 0.33 1.32 0.66 2 1 C1.896875 1.763125 1.79375 2.52625 1.6875 3.3125 C1.790625 4.199375 1.89375 5.08625 2 6 C4.42672567 7.78969026 4.42672567 7.78969026 7 9 C7 9.33 7 9.66 7 10 C4.125 10.125 4.125 10.125 1 10 C-1 8 -1 8 -1.1875 4.4375 C-1 1 -1 1 0 0 Z " fill="#C8C5C8" transform="translate(86,130)"/>
<path d="M0 0 C0.33 0 0.66 0 1 0 C1.33 2.31 1.66 4.62 2 7 C3.258125 7.144375 4.51625 7.28875 5.8125 7.4375 C8.42667123 7.73748686 10.47439892 8.15813297 13 9 C10 11 10 11 6.5 10.875 C3 10 3 10 1.0625 8.3125 C-0.27148038 5.40913094 -0.21536552 3.15869424 0 0 Z " fill="#B3AFB2" transform="translate(92,82)"/>
<path d="M0 0 C3.10883474 1.66815523 4.06517724 3.22274156 5.5625 6.375 C5.5625 7.035 5.5625 7.695 5.5625 8.375 C3.625 7.6875 3.625 7.6875 1.5625 6.375 C0.8125 3.75 0.8125 3.75 0.5625 1.375 C-0.4275 1.705 -1.4175 2.035 -2.4375 2.375 C-3.0975 1.715 -3.7575 1.055 -4.4375 0.375 C-2.4375 -0.625 -2.4375 -0.625 0 0 Z " fill="#835AEA" transform="translate(191.4375,54.625)"/>
<path d="M0 0 C0 1.65 0 3.3 0 5 C-3.3 4.67 -6.6 4.34 -10 4 C-4 -2 -4 -2 0 0 Z " fill="#9069F3" transform="translate(96,48)"/>
<path d="M0 0 C0.66 0 1.32 0 2 0 C2 0.99 2 1.98 2 3 C2.66 3.33 3.32 3.66 4 4 C3.34 6.64 2.68 9.28 2 12 C1.67 12 1.34 12 1 12 C1 10.35 1 8.7 1 7 C0.34 7 -0.32 7 -1 7 C-1.04254356 5.00045254 -1.04080783 2.99958364 -1 1 C-0.67 0.67 -0.34 0.34 0 0 Z " fill="#EA4788" transform="translate(20,145)"/>
<path d="M0 0 C0.66 0.66 1.32 1.32 2 2 C1.154375 2.515625 0.30875 3.03125 -0.5625 3.5625 C-1.7690625 4.7690625 -1.7690625 4.7690625 -3 6 C-2.9363921 9.70054409 -2.9363921 9.70054409 -2 13 C-2.66 13 -3.32 13 -4 13 C-5.20307987 9.39076038 -5.40565724 6.78613423 -5 3 C-2.5 1.0625 -2.5 1.0625 0 0 Z " fill="#4C348D" transform="translate(200,107)"/>
<path d="M0 0 C0.33 0.66 0.66 1.32 1 2 C0.67 2.99 0.34 3.98 0 5 C-0.99 5.33 -1.98 5.66 -3 6 C-4.70586575 7.62652316 -6.3777546 9.29006566 -8 11 C-7.91433603 8.087425 -7.42089045 6.43201976 -5.375 4.33203125 C-3.61608625 2.83908228 -1.83686981 1.39563738 0 0 Z " fill="#D5447E" transform="translate(114,147)"/>
<path d="M0 0 C0.33 0 0.66 0 1 0 C1.66 2.31 2.32 4.62 3 7 C5.97 7.495 5.97 7.495 9 8 C8.67 8.66 8.34 9.32 8 10 C5.1875 10.25 5.1875 10.25 2 10 C0.0625 8.375 0.0625 8.375 -1 6 C-0.6875 2.75 -0.6875 2.75 0 0 Z " fill="#643B4E" transform="translate(84,132)"/>
<path d="M0 0 C0.33 0 0.66 0 1 0 C1.6175196 5.09453672 -0.22939021 7.88366546 -3 12 C-3.99 12.33 -4.98 12.66 -6 13 C-6 12.01 -6 11.02 -6 10 C-5.34 10 -4.68 10 -4 10 C-3.896875 9.278125 -3.79375 8.55625 -3.6875 7.8125 C-2.93659472 4.74061475 -1.78158272 2.59814146 0 0 Z " fill="#D0447A" transform="translate(121,134)"/>
<path d="M0 0 C0.804375 1.2065625 0.804375 1.2065625 1.625 2.4375 C4.43105369 5.46508424 5.96825194 5.72510809 10 6 C9.67 6.66 9.34 7.32 9 8 C5.625 8.1875 5.625 8.1875 2 8 C-0.1519437 4.77208445 -0.20086443 3.71599191 0 0 Z " fill="#593C4B" transform="translate(37,134)"/>
<path d="M0 0 C0.99 1.32 1.98 2.64 3 4 C2.34 4.66 1.68 5.32 1 6 C0.53603307 8.89223503 0.53603307 8.89223503 0.375 12.125 C0.30023437 13.22070312 0.22546875 14.31640625 0.1484375 15.4453125 C0.09945313 16.28835937 0.05046875 17.13140625 0 18 C-0.33 18 -0.66 18 -1 18 C-1.87557031 11.45688671 -2.3548854 6.23352019 0 0 Z " fill="#E54586" transform="translate(19,124)"/>
<path d="M0 0 C0.33 0 0.66 0 1 0 C1.33 5.61 1.66 11.22 2 17 C1.34 17 0.68 17 0 17 C-1.14819277 11.1314592 -0.77313045 5.9114744 0 0 Z " fill="#6241B8" transform="translate(65,88)"/>
<path d="M0 0 C2.20745842 1.72757615 2.95309596 2.82517584 3.6875 5.5625 C4.09554233 10.05096565 4.0800983 14.49669538 4 19 C3.67 19 3.34 19 3 19 C1.93034128 12.67551301 0.86670454 6.35583327 0 0 Z " fill="#A7466E" transform="translate(16,147)"/>
<path d="M0 0 C0.804375 1.2065625 0.804375 1.2065625 1.625 2.4375 C4.43105369 5.46508424 5.96825194 5.72510809 10 6 C9.67 6.66 9.34 7.32 9 8 C5.625 8.1875 5.625 8.1875 2 8 C-0.1519437 4.77208445 -0.20086443 3.71599191 0 0 Z " fill="#5F384A" transform="translate(60,134)"/>
<path d="M0 0 C0 2.64 0 5.28 0 8 C-1.98 8.99 -1.98 8.99 -4 10 C-3.979375 9.071875 -3.95875 8.14375 -3.9375 7.1875 C-3.84230396 3.97713989 -3.84230396 3.97713989 -5 1 C-1.125 0 -1.125 0 0 0 Z " fill="#EE5E98" transform="translate(76,128)"/>
<path d="M0 0 C2.51699845 2.51699845 3.10964078 4.57554146 4 8 C3.66044225 11.05601978 3.2166622 11.7833378 1 14 C0.67 9.38 0.34 4.76 0 0 Z " fill="#795BCA" transform="translate(205,72)"/>
<path d="M0 0 C0.66 0.66 1.32 1.32 2 2 C1.25 3.9375 1.25 3.9375 0 6 C-1.875 6.5625 -1.875 6.5625 -4 7 C-6.2072358 8.48800372 -6.2072358 8.48800372 -8 10 C-8.33 9.34 -8.66 8.68 -9 8 C-8.51789063 7.67386719 -8.03578125 7.34773437 -7.5390625 7.01171875 C-6.90742187 6.57472656 -6.27578125 6.13773438 -5.625 5.6875 C-4.99851562 5.25824219 -4.37203125 4.82898438 -3.7265625 4.38671875 C-1.73621155 2.93079661 -1.73621155 2.93079661 0 0 Z " fill="#EDE2E6" transform="translate(117,160)"/>
<path d="M0 0 C2.31 0.33 4.62 0.66 7 1 C7 2.32 7 3.64 7 5 C4.69 5 2.38 5 0 5 C0.33 4.34 0.66 3.68 1 3 C0.67 2.01 0.34 1.02 0 0 Z " fill="#FAFAFD" transform="translate(42,132)"/>
<path d="M0 0 C3.36704285 -0.2295711 5.41370268 -0.33943529 8.375 1.375 C8.91125 1.91125 9.4475 2.4475 10 3 C10 3.66 10 4.32 10 5 C5.59885603 4.49701212 3.28804981 2.91227269 0 0 Z " fill="#4E4172" transform="translate(166,134)"/>
<path d="M0 0 C3.96 0 7.92 0 12 0 C11.67 1.32 11.34 2.64 11 4 C10.67 3.67 10.34 3.34 10 3 C8.32115762 2.6068352 6.63149955 2.25914548 4.9375 1.9375 C4.01839844 1.76089844 3.09929687 1.58429688 2.15234375 1.40234375 C1.44207031 1.26957031 0.73179687 1.13679687 0 1 C0 0.67 0 0.34 0 0 Z " fill="#784DDF" transform="translate(168,128)"/>
<path d="M0 0 C0.66 0 1.32 0 2 0 C2.33 0.66 2.66 1.32 3 2 C3.99 2.33 4.98 2.66 6 3 C6 3.66 6 4.32 6 5 C6.66 5 7.32 5 8 5 C7.67 5.99 7.34 6.98 7 8 C6.34 7.34 5.68 6.68 5 6 C4.34 6.66 3.68 7.32 3 8 C0 2.25 0 2.25 0 0 Z " fill="#FD6BAD" transform="translate(104,112)"/>
<path d="M0 0 C0.99 0.66 1.98 1.32 3 2 C1.375 7.75 1.375 7.75 -2 10 C-2 7.36 -2 4.72 -2 2 C-1.34 2 -0.68 2 0 2 C0 1.34 0 0.68 0 0 Z " fill="#E26192" transform="translate(61,128)"/>
<path d="M0 0 C0.33 1.32 0.66 2.64 1 4 C1.66 4 2.32 4 3 4 C3 4.99 3 5.98 3 7 C3.66 7 4.32 7 5 7 C4.67 8.65 4.34 10.3 4 12 C3.71125 11.360625 3.4225 10.72125 3.125 10.0625 C2.17176549 7.84793921 2.17176549 7.84793921 0 7 C0 4.69 0 2.38 0 0 Z " fill="#6441BB" transform="translate(190,116)"/>
<path d="M0 0 C0.33 0 0.66 0 1 0 C0.67 2.97 0.34 5.94 0 9 C-0.99 9.33 -1.98 9.66 -3 10 C-3.23226952 6.59338044 -3.35720302 4.59016151 -1.5625 1.625 C-0.7890625 0.820625 -0.7890625 0.820625 0 0 Z " fill="#4F388C" transform="translate(207,96)"/>
<path d="M0 0 C0.33 0 0.66 0 1 0 C2 6.625 2 6.625 2 10 C1.01 10 0.02 10 -1 10 C-1.125 2.25 -1.125 2.25 0 0 Z " fill="#4F4665" transform="translate(153,82)"/>
<path d="M0 0 C1.9375 0.375 1.9375 0.375 4 1 C5.35439668 3.70879335 5.06501451 6.00933268 5 9 C4.67 7.68 4.34 6.36 4 5 C2.68 4.67 1.36 4.34 0 4 C0 2.68 0 1.36 0 0 Z " fill="#EBE3F5" transform="translate(164,79)"/>
<path d="M0 0 C0.99 0.33 1.98 0.66 3 1 C0.66666667 3.33333333 -1.66666667 5.66666667 -4 8 C-4.99 8 -5.98 8 -7 8 C-7 7.34 -7 6.68 -7 6 C-5.33720673 4.9935725 -3.67016516 3.99414593 -2 3 C-1.34 2.01 -0.68 1.02 0 0 Z " fill="#B73B6B" transform="translate(111,152)"/>
<path d="M0 0 C0.33 0 0.66 0 1 0 C1 3.3 1 6.6 1 10 C-0.65 10.33 -2.3 10.66 -4 11 C-3.67 9.68 -3.34 8.36 -3 7 C-2.34 7 -1.68 7 -1 7 C-0.67 4.69 -0.34 2.38 0 0 Z " fill="#9677E6" transform="translate(196,130)"/>
<path d="M0 0 C0.99 0 1.98 0 3 0 C2.37240135 2.92879371 1.41377341 5.36095629 0 8 C-0.66 8 -1.32 8 -2 8 C-1.47731534 5.23723823 -0.89130413 2.6739124 0 0 Z " fill="#784DE1" transform="translate(189,104)"/>
<path d="M0 0 C0.33 1.32 0.66 2.64 1 4 C-4.75 2.25 -4.75 2.25 -7 0 C-3.86650268 -1.04449911 -3.01031744 -0.93423645 0 0 Z " fill="#8856EA" transform="translate(111,107)"/>
<path d="M0 0 C4.51617599 -0.07654536 8.59085217 -0.10228696 13 1 C12.67 1.66 12.34 2.32 12 3 C10.56163249 2.88541307 9.12429034 2.75790884 7.6875 2.625 C6.88699219 2.55539063 6.08648437 2.48578125 5.26171875 2.4140625 C3 2 3 2 0 0 Z " fill="#605281" transform="translate(183,142)"/>
<path d="M0 0 C0.33 1.32 0.66 2.64 1 4 C-0.98 4 -2.96 4 -5 4 C-5 3.01 -5 2.02 -5 1 C-2 0 -2 0 0 0 Z " fill="#6A2840" transform="translate(22,174)"/>
<path d="M0 0 C3.25 -0.375 3.25 -0.375 7 0 C9.4375 3 9.4375 3 11 6 C10.01 5.67 9.02 5.34 8 5 C8 4.34 8 3.68 8 3 C7.01 3 6.02 3 5 3 C5 2.34 5 1.68 5 1 C3.35 1 1.7 1 0 1 C0 0.67 0 0.34 0 0 Z " fill="#6E47CE" transform="translate(171,130)"/>
<path d="M0 0 C-0.33 0.99 -0.66 1.98 -1 3 C-1.66 2.67 -2.32 2.34 -3 2 C-4.37342831 1.9310528 -5.75002102 1.91532292 -7.125 1.9375 C-9.043125 1.9684375 -9.043125 1.9684375 -11 2 C-11 1.34 -11 0.68 -11 0 C-3.375 -1.125 -3.375 -1.125 0 0 Z " fill="#9879ED" transform="translate(167,77)"/>
<path d="M0 0 C2.64 0 5.28 0 8 0 C7.67 1.32 7.34 2.64 7 4 C4.97954558 3.39816251 2.97888961 2.72693904 1 2 C0.67 1.34 0.34 0.68 0 0 Z " fill="#6344B5" transform="translate(189,140)"/>
<path d="M0 0 C2.125 0.9375 2.125 0.9375 4 2 C2.68 2.99 1.36 3.98 0 5 C-1.32 4.34 -2.64 3.68 -4 3 C-3.34 3 -2.68 3 -2 3 C-2 2.34 -2 1.68 -2 1 C-1.34 0.67 -0.68 0.34 0 0 Z " fill="#F9F1F6" transform="translate(34,104)"/>
<path d="M0 0 C6.4 0.49230769 6.4 0.49230769 9.4375 3.0625 C10.2109375 4.0215625 10.2109375 4.0215625 11 5 C7.08406554 4.21681311 3.63593365 2.60820142 0 1 C0 0.67 0 0.34 0 0 Z " fill="#8A68E8" transform="translate(178,49)"/>
<path d="M0 0 C1.32 0.66 2.64 1.32 4 2 C3.67 2.66 3.34 3.32 3 4 C2.01 4 1.02 4 0 4 C-0.33 4.66 -0.66 5.32 -1 6 C-1.33 5.34 -1.66 4.68 -2 4 C-1.0625 1.875 -1.0625 1.875 0 0 Z " fill="#842C4C" transform="translate(114,153)"/>
<path d="M0 0 C3.96 1.98 3.96 1.98 8 4 C4.71023192 5.09658936 3.28696233 4.79953138 0 4 C0 2.68 0 1.36 0 0 Z " fill="#3B2966" transform="translate(182,138)"/>
<path d="M0 0 C0.66 0 1.32 0 2 0 C2 3.3 2 6.6 2 10 C1.01 10 0.02 10 -1 10 C-0.67 6.7 -0.34 3.4 0 0 Z " fill="#9271E4" transform="translate(137,81)"/>
</svg>
